HIERARCHY
ROOT hip
{
	OFFSET 0.000000 0.000000 0.000000 
	CHANNELS 6 Xposition Yposition Zposition Xrotation Zrotation Yrotation
	JOINT abdomen
	{
		OFFSET 0.000000 3.402643 0.000000 
		CHANNELS 3 Xrotation Zrotation Yrotation
		JOINT chest
		{
			OFFSET 0.000000 8.438565 -0.680529 
			CHANNELS 3 Xrotation Zrotation Yrotation
			JOINT neck
			{
				OFFSET 0.000000 10.207942 -0.272212 
				CHANNELS 3 Xrotation Zrotation Yrotation
				JOINT head
				{
					OFFSET 0.000000 3.130431 0.000000 
					CHANNELS 3 Xrotation Zrotation Yrotation
					End Site
					{
						OFFSET 0.000000 3.130435 0.000000 
					}
				}
			}
			JOINT lCollar
			{
				OFFSET 3.470700 6.669187 -0.816635 
				CHANNELS 3 Yrotation Zrotation Xrotation
				JOINT lShldr
				{
					OFFSET 3.198488 0.000000 0.000000 
					CHANNELS 3 Zrotation Yrotation Xrotation
					JOINT lForeArm
					{
						OFFSET 10.139888 0.000000 0.000000 
						CHANNELS 3 Yrotation Zrotation Xrotation
						JOINT lHand
						{
							OFFSET 8.370511 0.000000 0.000000 
							CHANNELS 3 Zrotation Yrotation Xrotation
							End Site
							{
								OFFSET 4.083176 0.000000 0.000000 
							}
						}
					}
				}
			}
			JOINT rCollar
			{
				OFFSET -3.470700 6.669187 -0.816635 
				CHANNELS 3 Yrotation Zrotation Xrotation
				JOINT rShldr
				{
					OFFSET -3.198488 0.000000 0.000000 
					CHANNELS 3 Zrotation Yrotation Xrotation
					JOINT rForeArm
					{
						OFFSET -10.139888 0.000000 0.000000 
						CHANNELS 3 Yrotation Zrotation Xrotation
						JOINT rHand
						{
							OFFSET -8.370511 0.000000 0.000000 
							CHANNELS 3 Zrotation Yrotation Xrotation
							End Site
							{
								OFFSET -4.083176 0.000000 0.000000 
							}
						}
					}
				}
			}
		}
	}
	JOINT lThigh
	{
		OFFSET 5.308129 -1.633274 1.361059 
		CHANNELS 3 Xrotation Zrotation Yrotation
		JOINT lShin
		{
			OFFSET -2.041588 -20.007561 0.000000 
			CHANNELS 3 Xrotation Zrotation Yrotation
			JOINT lFoot
			{
				OFFSET 0.000000 -19.190928 -1.224953 
				CHANNELS 3 Xrotation Yrotation Zrotation
				End Site
				{
					OFFSET 0.000000 -2.449906 4.627600 
				}
			}
		}
	}
	JOINT rThigh
	{
		OFFSET -5.308129 -1.633274 1.361059 
		CHANNELS 3 Xrotation Zrotation Yrotation
		JOINT rShin
		{
			OFFSET 2.041588 -20.007561 0.000000 
			CHANNELS 3 Xrotation Zrotation Yrotation
			JOINT rFoot
			{
				OFFSET 0.000000 -19.190928 -1.224953 
				CHANNELS 3 Xrotation Yrotation Zrotation
				End Site
				{
					OFFSET 0.000000 -2.449906 4.627600 
				}
			}
		}
	}
}
MOTION
Frames: 6
Frame Time: 0.011111
1.097232 53.312416 14.922786 5.409898 -5.720947 -5.170732 35.251236 4.679563 9.171698 -26.613363 -5.029771 1.986655 -13.490088 -0.486872 -0.434652 -10.254951 0.174030 -0.995974 8.861669 -1.932660 3.351237 -73.900978 -4.853379 41.675129 -87.988419 3.957487 33.589611 8.524705 12.647240 -19.007214 -6.806992 -0.756156 2.905732 74.317764 43.733070 45.816826 90.195290 -5.955564 35.274582 -8.534408 -12.637552 51.663921 -51.143639 14.978159 -0.888153 82.624924 0.147423 -9.531494 2.345660 -6.558431 -3.020243 29.521549 1.621212 11.101528 6.296777 5.991713 1.590626 14.060056 -7.930429 3.949777 
1.058223 53.614189 16.707504 5.113553 -5.659141 -3.937446 35.115036 4.818352 8.744483 -26.879295 -5.115115 1.883825 -12.875548 -0.500010 -0.649792 -10.206212 0.176168 -1.439808 8.861669 -1.932660 3.351237 -73.895454 -3.585138 41.158394 -88.032913 4.004030 33.637150 8.524705 12.647240 -19.202526 -6.806992 -0.756156 2.905732 73.853203 43.240276 46.093758 90.521881 -6.190201 35.488972 -8.534408 -12.637552 51.117046 -50.798347 13.661266 -2.041625 77.958191 -0.486337 -9.343657 2.598207 -6.713106 -2.964920 33.871246 1.046097 10.860332 -0.106580 5.940863 0.683860 20.934837 -11.188079 5.292403 
1.016405 53.899422 18.443850 4.857669 -6.046716 -2.669610 35.275616 5.479610 8.507172 -27.352030 -5.259645 1.759772 -12.661064 -0.474894 -0.818170 -9.756254 0.077601 -1.751120 8.861669 -1.932660 3.351237 -73.898552 -2.551930 40.694016 -88.052818 4.027430 33.646343 8.524705 12.647240 -19.329479 -6.806992 -0.756156 2.905732 73.395149 42.707508 46.459518 90.858162 -6.425575 35.684532 -8.534408 -12.637552 50.638535 -50.536610 12.829869 -3.534079 73.034935 -1.132582 -9.081944 3.202899 -6.859941 -2.883241 35.177338 1.612788 10.613154 -0.105574 5.941063 0.693597 25.251537 -12.841002 6.288534 
0.991753 54.161865 20.201731 4.863575 -6.455533 -1.891852 35.020596 6.055890 8.529886 -27.569803 -5.408765 1.722937 -12.602572 -0.458318 -0.882560 -9.159726 -0.047911 -1.852518 8.861669 -1.932660 3.351237 -73.928734 -1.662988 40.281525 -88.124031 4.105312 33.712948 8.524705 12.647240 -19.407606 -6.806992 -0.756156 2.905732 72.937843 42.164738 46.981956 91.159332 -6.623256 35.871288 -8.534408 -12.637552 49.779156 -50.318031 12.401378 -4.766076 67.901421 -1.803812 -8.757197 3.868686 -6.893599 -2.786264 36.278332 1.992577 10.844129 -0.106601 5.940863 0.683860 29.325788 -13.730571 7.060669 
0.967412 54.382496 21.973654 5.061939 -6.547322 -1.353866 34.584774 6.223868 8.391466 -27.559233 -5.338320 1.663001 -13.257196 -0.609613 -0.880252 -7.900309 -0.099552 -1.902030 8.861669 -1.932660 3.351237 -74.118759 -0.961238 39.901775 -88.275330 4.267406 33.856979 8.524705 12.647240 -19.515026 -6.806992 -0.756156 2.905732 72.461815 41.986717 47.412933 91.078720 -6.571685 35.819729 -8.534408 -12.637552 48.724464 -49.837917 12.001018 -5.404761 62.613091 -2.427485 -8.357999 4.173006 -6.963831 -2.717335 37.249214 2.071726 11.089089 -0.105599 5.941245 0.703350 32.299110 -13.783642 7.282065 
0.947439 54.557262 23.721546 5.228834 -6.496518 -1.025319 34.301998 6.133163 8.309458 -27.489389 -5.242228 1.652233 -14.087662 -0.713781 -0.994464 -6.638858 -0.400504 -2.159362 8.861669 -1.932660 3.351237 -74.244125 -0.700094 39.748203 -88.407211 4.403804 33.971886 8.524705 12.647240 -19.436901 -6.806992 -0.756156 2.905732 72.029572 41.746052 47.970333 91.175934 -6.635680 35.881985 -8.534408 -12.637552 48.548683 -48.925282 11.747787 -5.608856 57.294884 -3.021979 -7.904676 4.242497 -6.907242 -2.724409 38.284950 1.944356 11.448448 -0.106624 5.941048 0.693612 33.044182 -13.764457 7.324853 
